<svg width="519" height="107" viewBox="0 0 519 107" fill="none" xmlns="http://www.w3.org/2000/svg">
<path d="M243.454 1.06394C235.361 4.81761 234.462 17.6711 242.105 22.3347C251.209 28.0221 260.876 22.4484 260.876 11.5287C260.876 3.22514 251.322 -2.46222 243.454 1.06394Z" fill="#DB4E2E"/>
<path d="M350.232 1.06394C342.14 4.81761 341.24 17.6711 348.884 22.3347C357.988 28.0221 367.654 22.4484 367.654 11.5287C367.654 3.22514 358.1 -2.46222 350.232 1.06394Z" fill="#DB4E2E"/>
<path d="M449.49 21.9499C445.034 23.3642 441.419 28.0228 441.419 32.5151C441.419 34.6781 440.998 34.9277 437.215 35.8428C420.064 39.9191 403.081 55.8918 397.533 73.1123C396.356 76.6895 394.338 86.9219 394.338 89.0849V90.9983H445.706H497.159L496.57 85.9237C495.309 75.2752 490.097 65.2091 481.437 56.5573C475.636 50.9003 465.632 44.1619 461.176 43.0804C457.729 42.2485 458.654 40.8342 462.269 41.4998C482.867 45.2433 501.026 63.7949 503.296 83.3447C504.137 90.9983 504.137 90.9983 507.92 90.9983H511.367L510.779 85.3413C510.106 78.3533 506.407 67.5385 502.708 61.3824C499.261 55.7254 491.274 47.4063 485.557 43.5795C480.849 40.3351 468.911 35.2604 466.052 35.2604C464.455 35.2604 464.118 34.7613 464.118 32.5151C464.118 25.4439 456.384 19.787 449.49 21.9499ZM457.645 28.7716C458.401 29.6867 459.074 31.1841 459.074 32.016C459.074 33.4302 458.401 33.5966 452.769 33.5966C448.229 33.5966 446.463 33.2639 446.547 32.5151C446.883 26.8582 453.946 24.4456 457.645 28.7716ZM459.831 53.0633C460.503 53.8952 460.755 57.1396 460.587 62.963C460.335 70.9493 460.419 71.6148 461.764 70.9493C464.371 69.6183 467.397 70.2006 470.088 72.5299C472.442 74.6097 472.778 75.4416 472.694 79.0188C472.694 82.4296 472.273 83.4279 470.088 85.3413C468.07 87.1715 466.641 87.6707 463.782 87.6707C460.587 87.6707 459.747 87.2547 457.477 84.759L454.87 81.7641L455.459 69.3687L455.963 56.8901H447.052H438.056V68.7863C438.056 76.939 438.392 81.0154 439.065 81.6809C439.653 82.2633 442.764 82.6792 447.304 82.6792C454.366 82.6792 454.618 82.7624 456.384 85.1749L458.317 87.6707H448.565C439.065 87.6707 438.896 87.5875 436.206 85.2581L433.432 82.8456L433.18 68.5368C433.011 58.3875 433.18 53.9784 433.936 53.0633C435.365 51.3163 458.401 51.3163 459.831 53.0633ZM453.189 62.7134V65.2091H446.463H439.737V62.7134V60.2177H446.463H453.189V62.7134ZM453.189 69.7846C453.189 71.8644 453.105 71.8644 446.463 71.8644C439.821 71.8644 439.737 71.8644 439.737 69.7846C439.737 67.7049 439.821 67.7049 446.463 67.7049C453.105 67.7049 453.189 67.7049 453.189 69.7846ZM453.189 76.8559V79.3516H446.463H439.737V76.8559V74.3601H446.463H453.189V76.8559Z" fill="#DB4E2E"/>
<path d="M461.021 77.3505C460.307 78.7467 460.307 79.7938 461.021 81.3645C461.824 83.1097 462.538 83.4588 464.948 83.197C467.358 83.0225 467.893 82.4989 468.072 80.4919C468.25 79.0957 467.893 77.4378 467.268 76.7397C465.751 74.9072 462.181 75.2563 461.021 77.3505Z" fill="#DB4E2E"/>
<path d="M152.074 40.762L152.412 79.7774L155.334 86.1472C161.404 99.3419 173.205 106.622 188.492 106.735C199.844 106.849 208.049 104.006 215.355 97.2945C224.122 89.1047 226.595 82.7348 226.595 67.8339C226.595 57.0279 226.257 55.3217 223.56 50.0893C220.413 44.1745 213.894 37.3496 208.386 34.3922C196.697 28.3636 178.713 31.0935 172.643 39.7383C171.07 41.8995 170.957 40.3071 170.957 21.9937V1.86046H161.291H151.737L152.074 40.762ZM199.169 51.1131C205.688 55.5492 208.049 60.3266 208.049 68.9714C208.049 75 207.487 77.3887 205.464 80.4599C197.371 92.6308 181.635 92.6308 173.543 80.4599C171.519 77.3887 170.957 75 170.957 68.9714C170.957 62.9428 171.519 60.5541 173.543 57.4829C177.589 51.4543 182.759 48.4969 189.503 48.4969C193.774 48.4969 196.359 49.1793 199.169 51.1131Z" fill="#DB4E2E"/>
<path d="M274.364 53.6153V105.37H283.918H293.472V53.6153V1.86029H283.918H274.364V53.6153Z" fill="#DB4E2E"/>
<path d="M310.333 53.6153V105.37H319.887H329.441V53.6153V1.86029H319.887H310.333V53.6153Z" fill="#DB4E2E"/>
<path d="M0.337195 47.5865C0.674389 86.2606 0.786788 87.9668 3.14715 92.2892C8.31747 102.071 16.1853 106.621 28.0996 106.849C45.6337 107.076 56.0867 97.9766 57.7727 81.142L58.3347 75.7958H48.8932C39.5642 75.7958 39.4518 75.7958 39.4518 78.6395C39.4518 82.3932 36.6418 87.8531 34.3939 88.763C30.2351 90.3555 24.7276 89.4455 22.0301 86.6018C19.3325 83.9856 19.2201 83.4169 19.2201 66.6961V49.634H36.6418H54.0636V41.1029V32.5719H36.6418H19.2201V20.0596V7.54744H9.66625H0L0.337195 47.5865Z" fill="#DB4E2E"/>
<path d="M94.9758 31.4346C81.8252 33.3683 70.8102 42.0131 66.4267 53.8428C62.8299 63.6251 63.0547 77.0473 66.9887 85.692C72.159 97.1805 80.8137 104.005 93.1775 106.28C103.743 108.214 112.51 105.029 118.13 97.1805L121.502 92.5169V98.8867V105.37H130.606H139.823L139.261 82.8484C138.586 58.3927 137.462 52.8191 130.943 44.288C123.637 34.5058 109.138 29.3871 94.9758 31.4346ZM110.262 50.5441C125.548 58.2789 122.513 84.6683 105.991 88.422C88.4567 92.4031 75.9805 72.2699 86.0964 56.3452C90.8171 48.9517 101.832 46.2217 110.262 50.5441Z" fill="#DB4E2E"/>
<path d="M239.52 68.9712V105.37H249.073H258.627V68.9712V32.5721H249.073H239.52V68.9712Z" fill="#DB4E2E"/>
<path d="M346.299 68.9712V105.37H355.853H365.407V68.9712V32.5721H355.853H346.299V68.9712Z" fill="#DB4E2E"/>
<path d="M393.731 99.4229C390.887 100.132 389.215 101.551 387.71 104.46L386.706 106.446H452.853H519L518.415 104.46C517.662 101.764 515.739 100.203 512.227 99.352C508.463 98.5007 397.41 98.5007 393.731 99.4229Z" fill="#DB4E2E"/>
</svg>
