<svg width="229" height="23" viewBox="0 0 229 23" fill="none" xmlns="http://www.w3.org/2000/svg">
<g clip-path="url(#clip0_2287_36600)">
<path d="M185.843 2.06989V4.13989H188.044H190.246V2.06989V-0.000107765H188.044H185.843V2.06989Z" fill="white"/>
<path d="M67.3789 11.73V23H69.5808H71.7828V11.73V0.459999H69.5808H67.3789V11.73Z" fill="white"/>
<path d="M96.8848 2.99001C96.8848 5.38201 96.8407 5.52001 95.7838 5.52001C94.815 5.52001 94.6829 5.70401 94.6829 7.36001C94.6829 9.01602 94.815 9.20002 95.7838 9.20002H96.8848V13.984C96.8848 19.504 97.3692 21.39 99.1307 22.31C100.452 23.046 105.516 23.23 106.485 22.586C106.882 22.356 107.014 21.482 106.926 20.194L106.793 18.17L104.944 18.308C101.641 18.584 101.289 18.078 101.289 13.34V9.20002H104.151H107.014V7.36001V5.52001H104.151H101.289V2.99001V0.460014H99.0867H96.8848V2.99001Z" fill="white"/>
<path d="M109.656 2.99001C109.656 5.38201 109.612 5.52001 108.555 5.52001C107.586 5.52001 107.454 5.70401 107.454 7.36001C107.454 9.01602 107.586 9.20002 108.555 9.20002H109.656V13.984C109.656 19.504 110.14 21.39 111.902 22.31C113.223 23.046 118.287 23.23 119.256 22.586C119.653 22.356 119.785 21.482 119.697 20.194L119.564 18.17L117.715 18.308C114.412 18.584 114.06 18.078 114.06 13.34V9.20002H116.922H119.785V7.36001V5.52001H116.922H114.06V2.99001V0.460014H111.858H109.656V2.99001Z" fill="white"/>
<path d="M47.1213 11.914V23H49.3233H51.5252V20.102V17.158L55.7088 16.882C60.2448 16.56 62.2265 15.916 63.7679 14.168C65.7496 11.914 65.7496 6.026 63.7238 3.772C61.7861 1.564 60.509 1.242 53.639 1.012L47.1213 0.827997V11.914ZM60.1127 6.21C61.4779 7.59 61.566 10.028 60.3769 11.546C59.6283 12.512 59.0998 12.65 55.5327 12.788L51.5252 12.972V9.016V5.06H55.2685C58.7035 5.06 59.1438 5.152 60.1127 6.21Z" fill="white"/>
<path d="M16.8668 3.036C17.087 4.416 16.9989 4.508 15.4576 4.784C13.2557 5.152 9.82067 7.084 7.75086 9.108C5.68105 11.178 3.52317 15.732 3.52317 18.032C3.52317 19.642 3.43509 19.734 1.89375 19.872C0.352401 20.01 0.220285 20.148 0.0881701 21.482L-0.0439453 23H19.8174H39.6787L39.5466 21.482C39.4145 20.148 39.2824 20.01 37.8291 19.872C36.2878 19.734 36.2437 19.688 35.9795 17.48C35.3189 11.822 30.4307 6.348 24.7057 4.922C22.768 4.462 22.5037 4.278 22.7239 3.45C22.9001 2.944 23.0322 2.346 23.0762 2.116C23.0762 1.932 21.667 1.702 19.9055 1.656L16.6466 1.61L16.8668 3.036ZM27.6562 8.05C27.9205 8.694 28.4489 9.2 28.8453 9.2C29.5939 9.2 29.7261 9.936 29.0655 10.35C28.8453 10.488 28.6251 11.178 28.5811 11.868V13.11L27.8764 12.052C27.5241 11.5 26.9076 11.04 26.5553 11.04C26.0709 11.04 25.9828 10.81 26.247 10.212C26.4232 9.798 26.5993 8.878 26.5993 8.142C26.6434 6.578 26.9957 6.532 27.6562 8.05Z" fill="white"/>
<path d="M127.844 5.52011C123.528 6.44011 121.59 8.78611 121.238 13.4781C120.886 18.6761 123.572 22.1721 128.46 22.8161C132.027 23.2761 135.462 22.3561 137.268 20.4701C138.061 19.6421 138.721 18.5381 138.721 17.9861C138.721 17.1121 138.457 17.0201 136.519 17.0201C135.33 17.0201 134.317 17.2041 134.317 17.4341C134.317 18.2621 131.631 18.9521 129.385 18.7681C127.712 18.5841 126.875 18.2161 126.302 17.4801C124.629 15.3181 124.981 15.1801 132.336 15.1801H139.162V13.6621C139.118 11.5001 137.708 8.55611 135.991 7.17611C135.154 6.53211 133.393 5.79611 132.116 5.52011C130.838 5.29011 129.782 5.06011 129.737 5.10611C129.737 5.15211 128.857 5.33611 127.844 5.52011ZM133.481 10.3961C135.198 12.0521 134.582 12.4201 130.134 12.4201C125.73 12.4201 125.025 12.0061 126.743 10.4881C128.284 9.01611 131.983 8.97011 133.481 10.3961Z" fill="white"/>
<path d="M217.682 5.52011C213.366 6.44011 211.429 8.78611 211.076 13.4781C210.724 18.6761 213.41 22.1721 218.299 22.8161C221.866 23.2761 225.301 22.3561 227.106 20.4701C227.899 19.6421 228.56 18.5381 228.56 17.9861C228.56 17.1121 228.295 17.0201 226.358 17.0201C225.169 17.0201 224.156 17.2041 224.156 17.4341C224.156 18.2621 221.47 18.9521 219.224 18.7681C217.55 18.5841 216.713 18.2161 216.141 17.4801C214.467 15.3181 214.82 15.1801 222.174 15.1801H229V13.6621C228.956 11.5001 227.547 8.55611 225.829 7.17611C224.993 6.53211 223.231 5.79611 221.954 5.52011C220.677 5.29011 219.62 5.06011 219.576 5.10611C219.576 5.15211 218.695 5.33611 217.682 5.52011ZM223.319 10.3961C225.037 12.0521 224.42 12.4201 219.972 12.4201C215.568 12.4201 214.864 12.0061 216.581 10.4881C218.123 9.01611 221.822 8.97011 223.319 10.3961Z" fill="white"/>
<path d="M78.1242 6.164C75.3498 7.452 73.7644 10.948 74.0727 14.95C74.5131 20.286 77.6838 23.276 82.484 22.862C83.8933 22.724 85.6988 22.218 86.5356 21.666L88.0769 20.746V21.85C88.0769 22.908 88.2531 23 90.2789 23H92.4808V14.26V5.52H90.2789C88.209 5.52 88.0769 5.612 88.0769 6.716V7.866L86.6677 6.808C84.9062 5.52 80.2381 5.152 78.1242 6.164ZM86.7558 10.81C87.5925 11.73 87.8127 12.512 87.8127 14.352C87.8127 16.33 87.6365 16.836 86.5796 17.756C84.8621 19.366 81.6033 19.32 79.7537 17.664C78.5646 16.652 78.3885 16.192 78.3885 14.214C78.3885 10.856 79.6656 9.66 83.1446 9.66C85.3465 9.66 85.875 9.844 86.7558 10.81Z" fill="white"/>
<path d="M141.364 14.26V23H143.521H145.679L145.855 17.756C145.988 12.926 146.076 12.374 147.044 11.316C147.969 10.304 148.498 10.12 150.656 10.12H153.21L153.518 8.51C154.003 5.75 153.606 5.382 150.524 5.612C148.454 5.75 147.661 6.026 147.044 6.808C146.076 8.096 145.767 8.096 145.767 6.67C145.767 5.612 145.635 5.52 143.565 5.52H141.364V14.26Z" fill="white"/>
<path d="M155.015 6.762C155.236 7.452 156.425 11.408 157.658 15.502L159.904 23H162.898H165.937L167.038 19.228C167.655 17.112 168.315 14.812 168.491 14.122C168.623 13.386 168.932 12.972 169.108 13.202C169.328 13.386 170.077 15.686 170.825 18.262L172.235 23H175.273H178.312L179.413 19.228C180.029 17.112 181.218 13.202 182.055 10.442L183.552 5.52H181.262H179.016L177.299 11.408C175.493 17.618 175.053 18.538 174.701 17.204C174.569 16.698 173.732 13.892 172.851 10.902L171.266 5.474L169.02 5.612L166.774 5.75L165.012 11.822C164.043 15.18 163.119 17.802 162.986 17.664C162.854 17.526 161.93 14.812 160.917 11.592L159.155 5.75L156.865 5.612L154.619 5.474L155.015 6.762Z" fill="white"/>
<path d="M185.843 14.26V23H188.044H190.246V14.26V5.52H188.044H185.843V14.26Z" fill="white"/>
<path d="M195.267 6.16389C193.417 7.03789 192.448 8.55589 192.448 10.7179C192.448 13.6619 194.738 15.1799 200.375 15.9159C203.194 16.2839 204.339 16.7899 204.339 17.7099C204.339 18.7219 202.885 19.3199 200.375 19.3199C198.526 19.3199 197.953 19.0899 197.116 18.1699C196.324 17.2499 195.663 17.0199 194.034 17.0199C192.14 17.0199 192.008 17.1119 192.008 18.2159C192.008 21.2979 196.808 23.3679 202.665 22.8619C206.452 22.5399 208.126 21.6199 208.654 19.5959C209.799 15.3179 207.421 13.2939 199.847 12.1899C195.883 11.6379 196.015 9.19989 200.023 9.19989C202.445 9.19989 203.898 9.79789 203.898 10.8559C203.898 11.4079 204.383 11.4999 206.232 11.4079C208.39 11.2699 208.522 11.1779 208.39 10.1659C207.95 6.99189 205.263 5.51989 200.023 5.51989C198.173 5.56589 196.015 5.84189 195.267 6.16389Z" fill="white"/>
</g>
<defs>
<clipPath id="clip0_2287_36600">
<rect width="229" height="23" fill="white"/>
</clipPath>
</defs>
</svg>
