<svg width="54" height="44" viewBox="0 0 54 44" fill="none" xmlns="http://www.w3.org/2000/svg">
<g clip-path="url(#clip0_48_142)">
<path d="M31.773 10.012C31.722 9.95501 29.8845 10.0345 28.2855 11.77C26.6865 13.504 26.9325 15.493 26.9685 15.544C27.0045 15.595 29.2485 15.6745 30.681 13.657C32.1135 11.6395 31.824 10.0705 31.773 10.012ZM36.744 27.6115C36.672 27.4675 33.2565 25.7605 33.5745 22.4785C33.8925 19.195 36.087 18.295 36.1215 18.1975C36.156 18.1 35.226 17.0125 34.2405 16.462C33.5169 16.0739 32.7161 15.8515 31.896 15.811C31.734 15.8065 31.1715 15.6685 30.015 15.985C29.253 16.1935 27.5355 16.8685 27.063 16.8955C26.589 16.9225 25.179 16.1125 23.6625 15.898C22.692 15.7105 21.663 16.0945 20.9265 16.39C20.1915 16.684 18.7935 17.521 17.8155 19.7455C16.8375 21.9685 17.349 25.4905 17.715 26.5855C18.081 27.679 18.6525 29.4715 19.6245 30.7795C20.4885 32.2555 21.6345 33.28 22.113 33.628C22.5915 33.976 23.9415 34.207 24.8775 33.7285C25.6305 33.2665 26.9895 33.001 27.5265 33.0205C28.062 33.04 29.118 33.2515 30.1995 33.829C31.056 34.1245 31.866 34.0015 32.6775 33.6715C33.489 33.34 34.6635 32.083 36.0345 29.5345C36.555 28.3495 36.792 27.709 36.744 27.6115Z" fill="black"/>
<path d="M31.773 10.012C31.722 9.95501 29.8845 10.0345 28.2855 11.77C26.6865 13.504 26.9325 15.493 26.9685 15.544C27.0045 15.595 29.2485 15.6745 30.681 13.657C32.1135 11.6395 31.824 10.0705 31.773 10.012ZM36.744 27.6115C36.672 27.4675 33.2565 25.7605 33.5745 22.4785C33.8925 19.195 36.087 18.295 36.1215 18.1975C36.156 18.1 35.226 17.0125 34.2405 16.462C33.5169 16.0739 32.7161 15.8515 31.896 15.811C31.734 15.8065 31.1715 15.6685 30.015 15.985C29.253 16.1935 27.5355 16.8685 27.063 16.8955C26.589 16.9225 25.179 16.1125 23.6625 15.898C22.692 15.7105 21.663 16.0945 20.9265 16.39C20.1915 16.684 18.7935 17.521 17.8155 19.7455C16.8375 21.9685 17.349 25.4905 17.715 26.5855C18.081 27.679 18.6525 29.4715 19.6245 30.7795C20.4885 32.2555 21.6345 33.28 22.113 33.628C22.5915 33.976 23.9415 34.207 24.8775 33.7285C25.6305 33.2665 26.9895 33.001 27.5265 33.0205C28.062 33.04 29.118 33.2515 30.1995 33.829C31.056 34.1245 31.866 34.0015 32.6775 33.6715C33.489 33.34 34.6635 32.083 36.0345 29.5345C36.555 28.3495 36.792 27.709 36.744 27.6115Z" fill="black"/>
</g>
<rect x="0.5" y="0.5" width="53" height="43" rx="3.5" stroke="#EAEAEA"/>
<defs>
<clipPath id="clip0_48_142">
<rect width="24" height="24" fill="white" transform="translate(15 10)"/>
</clipPath>
</defs>
</svg>
