<svg width="16" height="16" viewBox="0 0 16 16" fill="none" xmlns="http://www.w3.org/2000/svg">
<path d="M6.52724 8C8.48931 8 10.0799 6.32107 10.0799 4.25C10.0799 2.17893 8.48931 0.5 6.52724 0.5C4.56518 0.5 2.97461 2.17893 2.97461 4.25C2.97461 6.32107 4.56518 8 6.52724 8Z" fill="#646464"/>
<path d="M6.52509 9.875C2.96535 9.875 0.0664062 12.395 0.0664062 15.5C0.0664062 15.71 0.222722 15.875 0.421669 15.875H12.6285C12.8275 15.875 12.9838 15.71 12.9838 15.5C12.9838 12.395 10.0848 9.875 6.52509 9.875Z" fill="#646464"/>
<path d="M12 8C12 8.06365 12.0253 8.1247 12.0703 8.16971C12.1153 8.21471 12.1763 8.24 12.24 8.24H13.76V9.76C13.76 9.82365 13.7853 9.8847 13.8303 9.92971C13.8753 9.97471 13.9363 10 14 10C14.0637 10 14.1247 9.97471 14.1697 9.92971C14.2147 9.8847 14.24 9.82365 14.24 9.76V8.24H15.76C15.8237 8.24 15.8847 8.21471 15.9297 8.16971C15.9747 8.1247 16 8.06365 16 8C16 7.93635 15.9747 7.8753 15.9297 7.83029C15.8847 7.78529 15.8237 7.76 15.76 7.76H14.24V6.24C14.24 6.17635 14.2147 6.1153 14.1697 6.07029C14.1247 6.02529 14.0637 6 14 6C13.9363 6 13.8753 6.02529 13.8303 6.07029C13.7853 6.1153 13.76 6.17635 13.76 6.24V7.76H12.24C12.1763 7.76 12.1153 7.78529 12.0703 7.83029C12.0253 7.8753 12 7.93635 12 8Z" fill="#646464"/>
</svg>
