<svg width="18" height="18" viewBox="0 0 18 18" fill="none" xmlns="http://www.w3.org/2000/svg">
<path d="M3.75 15.75V10.5C3.75 10.0875 3.897 9.73425 4.191 9.44025C4.4845 9.14675 4.8375 9 5.25 9H6V7.5H5.25C4.8375 7.5 4.4845 7.353 4.191 7.059C3.897 6.7655 3.75 6.4125 3.75 6V3.75C3.75 3.3375 3.897 2.98425 4.191 2.69025C4.4845 2.39675 4.8375 2.25 5.25 2.25H12.75C13.1625 2.25 13.5157 2.39675 13.8097 2.69025C14.1033 2.98425 14.25 3.3375 14.25 3.75V6C14.25 6.4125 14.1033 6.7655 13.8097 7.059C13.5157 7.353 13.1625 7.5 12.75 7.5H12V9H12.75C13.1625 9 13.5157 9.14675 13.8097 9.44025C14.1033 9.73425 14.25 10.0875 14.25 10.5V15.75H12.75V13.5H5.25V15.75H3.75ZM7.5 9H10.5V7.5H7.5V9Z" fill="#646464"/>
</svg>
