<svg width="21" height="20" viewBox="0 0 21 20" fill="none" xmlns="http://www.w3.org/2000/svg">
<path d="M9.7059 0.0628719C7.81751 0.290709 5.92911 1.0993 4.5184 2.28316C4.00947 2.70756 3.25947 3.48489 2.90679 3.95396C1.59429 5.70071 0.880005 7.84058 0.880005 10.0207C0.880005 13.5097 2.76393 16.8156 5.7684 18.5936C8.85322 20.4207 12.6121 20.4699 15.7595 18.7276L16.2059 18.4774L18.1389 19.2503C20.2639 20.0991 20.2238 20.0901 20.572 19.8534C20.7729 19.7104 20.88 19.5049 20.88 19.2592C20.88 19.1565 20.6077 18.2004 20.2371 16.9898L19.5943 14.9035L19.8086 14.4746C20.7282 12.6341 21.0675 10.5612 20.7639 8.55536C20.0229 3.6055 15.7907 -0.0398788 10.813 0.000328064C10.4693 0.00479507 9.96929 0.031601 9.7059 0.0628719ZM12.5095 1.48797C14.1746 1.84089 15.5809 2.58248 16.7684 3.72612C17.5586 4.49451 18.0586 5.16015 18.5139 6.06703C18.9291 6.89797 19.1791 7.67529 19.3488 8.64024C19.4648 9.31035 19.4514 10.7444 19.3264 11.4324C19.1523 12.4018 18.755 13.5008 18.3175 14.2468C18.2238 14.4076 18.1345 14.6176 18.1255 14.7159C18.1077 14.8544 18.2104 15.252 18.5764 16.4671C18.8354 17.3338 19.0496 18.0485 19.0496 18.0575C19.0496 18.0709 18.4246 17.8252 17.6568 17.5214C16.063 16.8781 16.0318 16.8736 15.6032 17.1595C14.563 17.8475 13.3264 18.3255 12.072 18.5221C11.3934 18.6248 10.1791 18.6248 9.52286 18.5176C5.23268 17.8162 2.17911 14.2557 2.17465 9.94919C2.17465 6.61652 4.10768 3.57423 7.13447 2.14467C7.90679 1.77835 8.84429 1.50137 9.71929 1.38075C9.88 1.35841 10.4514 1.34948 10.9916 1.35841C11.8354 1.37181 12.0496 1.38968 12.5095 1.48797Z" fill="#6E6E6E"/>
<path d="M5.54514 8.61344C5.13442 8.72066 4.77281 9.0155 4.58531 9.3997C4.43353 9.70795 4.42906 10.2842 4.57639 10.5836C4.72817 10.9007 4.91121 11.0928 5.21924 11.2581C5.47817 11.3966 5.53174 11.41 5.87996 11.4056C6.20139 11.4056 6.29514 11.3877 6.4871 11.2894C6.82192 11.1107 6.96478 10.9767 7.13442 10.664C7.27281 10.4049 7.28621 10.3513 7.28621 10.0028C7.28621 9.65434 7.27281 9.60073 7.13442 9.34162C6.87996 8.87701 6.49156 8.62684 5.97371 8.59557C5.81299 8.58664 5.62103 8.5911 5.54514 8.61344Z" fill="#6E6E6E"/>
<path d="M10.5451 8.61344C10.1344 8.72066 9.77281 9.0155 9.58531 9.3997C9.43353 9.70795 9.42906 10.2842 9.57639 10.5836C9.72817 10.9007 9.91121 11.0928 10.2192 11.2581C10.4782 11.3966 10.5317 11.41 10.88 11.4056C11.2014 11.4056 11.2951 11.3877 11.4871 11.2894C11.8219 11.1107 11.9648 10.9767 12.1344 10.664C12.2728 10.4049 12.2862 10.3513 12.2862 10.0028C12.2862 9.65434 12.2728 9.60073 12.1344 9.34162C11.88 8.87701 11.4916 8.62684 10.9737 8.59557C10.813 8.58664 10.621 8.5911 10.5451 8.61344Z" fill="#6E6E6E"/>
<path d="M15.5451 8.61344C15.1344 8.72066 14.7728 9.0155 14.5853 9.3997C14.4335 9.70795 14.4291 10.2842 14.5764 10.5836C14.7282 10.9007 14.9112 11.0928 15.2192 11.2581C15.4782 11.3966 15.5317 11.41 15.88 11.4056C16.2014 11.4056 16.2951 11.3877 16.4871 11.2894C16.8219 11.1107 16.9648 10.9767 17.1344 10.664C17.2728 10.4049 17.2862 10.3513 17.2862 10.0028C17.2862 9.65434 17.2728 9.60073 17.1344 9.34162C16.88 8.87701 16.4916 8.62684 15.9737 8.59557C15.813 8.58664 15.621 8.5911 15.5451 8.61344Z" fill="#6E6E6E"/>
</svg>
