<svg width="19" height="19" viewBox="0 0 19 19" fill="none" xmlns="http://www.w3.org/2000/svg">
<path d="M15.6512 8.90495H12.4529C10.8617 8.90495 10.0938 8.12911 10.0938 6.54578V3.34745C10.0938 1.7562 10.8696 0.988281 12.4529 0.988281H15.6512C17.2425 0.988281 18.0104 1.76411 18.0104 3.34745V6.54578C18.0104 8.12911 17.2346 8.90495 15.6512 8.90495ZM12.4529 2.17578C11.5187 2.17578 11.2812 2.41328 11.2812 3.34745V6.54578C11.2812 7.47995 11.5187 7.71745 12.4529 7.71745H15.6512C16.5854 7.71745 16.8229 7.47995 16.8229 6.54578V3.34745C16.8229 2.41328 16.5854 2.17578 15.6512 2.17578H12.4529Z" fill="#646464"/>
<path d="M6.547 8.90495H3.34867C1.75742 8.90495 0.989502 8.20036 0.989502 6.7437V3.14953C0.989502 1.69286 1.76534 0.988281 3.34867 0.988281H6.547C8.13825 0.988281 8.90617 1.69286 8.90617 3.14953V6.73578C8.90617 8.20036 8.13034 8.90495 6.547 8.90495ZM3.34867 2.17578C2.28784 2.17578 2.177 2.47661 2.177 3.14953V6.73578C2.177 7.41661 2.28784 7.70953 3.34867 7.70953H6.547C7.60784 7.70953 7.71867 7.4087 7.71867 6.73578V3.14953C7.71867 2.4687 7.60784 2.17578 6.547 2.17578H3.34867Z" fill="#646464"/>
<path d="M6.547 18.0104H3.34867C1.75742 18.0104 0.989502 17.2346 0.989502 15.6512V12.4529C0.989502 10.8617 1.76534 10.0938 3.34867 10.0938H6.547C8.13825 10.0938 8.90617 10.8696 8.90617 12.4529V15.6512C8.90617 17.2346 8.13034 18.0104 6.547 18.0104ZM3.34867 11.2812C2.4145 11.2812 2.177 11.5187 2.177 12.4529V15.6512C2.177 16.5854 2.4145 16.8229 3.34867 16.8229H6.547C7.48117 16.8229 7.71867 16.5854 7.71867 15.6512V12.4529C7.71867 11.5187 7.48117 11.2812 6.547 11.2812H3.34867Z" fill="#646464"/>
<path d="M16.625 12.8633H11.875C11.5504 12.8633 11.2812 12.5941 11.2812 12.2695C11.2812 11.9449 11.5504 11.6758 11.875 11.6758H16.625C16.9496 11.6758 17.2188 11.9449 17.2188 12.2695C17.2188 12.5941 16.9496 12.8633 16.625 12.8633Z" fill="#646464"/>
<path d="M16.625 16.0312H11.875C11.5504 16.0312 11.2812 15.7621 11.2812 15.4375C11.2812 15.1129 11.5504 14.8438 11.875 14.8438H16.625C16.9496 14.8438 17.2188 15.1129 17.2188 15.4375C17.2188 15.7621 16.9496 16.0312 16.625 16.0312Z" fill="#646464"/>
</svg>
