<svg width="26" height="26" viewBox="0 0 26 26" fill="none" xmlns="http://www.w3.org/2000/svg">
<circle cx="13" cy="13" r="13" fill="#212121" fill-opacity="0.4"/>
<path d="M15.9599 7.06665C14.7533 7.06665 13.6733 7.65332 12.9999 8.55332C12.3266 7.65332 11.2466 7.06665 10.0399 7.06665C7.99325 7.06665 6.33325 8.73332 6.33325 10.7933C6.33325 11.5866 6.45992 12.32 6.67992 13C7.73325 16.3333 10.9799 18.3266 12.5866 18.8733C12.8133 18.9533 13.1866 18.9533 13.4133 18.8733C15.0199 18.3266 18.2666 16.3333 19.3199 13C19.5399 12.32 19.6666 11.5866 19.6666 10.7933C19.6666 8.73332 18.0066 7.06665 15.9599 7.06665Z" fill="#FF1E1E"/>
</svg>
