<svg width="22" height="20" viewBox="0 0 22 20" fill="none" xmlns="http://www.w3.org/2000/svg">
<path d="M5.40421 0.0554562C3.5622 0.371309 2.03694 1.3749 1.05745 2.9185C0.321621 4.07493 0 5.20079 0 6.61194C0 9.13876 1.38882 11.7827 4.29316 14.7884C5.83304 16.3779 7.52399 17.8043 9.53169 19.2002C10.4429 19.8319 10.7353 20 10.9156 20C11.1008 20 11.4468 19.8013 12.3288 19.1849C16.7682 16.0875 20.0721 12.4858 21.266 9.44951C21.612 8.56818 21.88 7.32006 21.88 6.59156C21.88 6.11778 21.7241 5.16513 21.5632 4.63022C21.0613 2.95926 19.9064 1.51755 18.4396 0.733011C17.4699 0.213383 16.6463 0.00451279 15.545 0.00960732C14.4194 0.00960732 13.6738 0.193005 12.6992 0.69735C12.1242 0.997919 11.7051 1.30358 11.2519 1.75189L10.9156 2.07793L10.5794 1.75189C9.7461 0.926598 8.64479 0.340742 7.49475 0.1064C6.92461 -0.0107708 5.92076 -0.0362434 5.40421 0.0554562ZM6.90511 1.46151C8.21109 1.64491 9.35138 2.30718 10.1457 3.33624C10.5112 3.81002 10.633 3.90172 10.9156 3.90172C11.2031 3.90172 11.3201 3.81512 11.7002 3.31587C12.9623 1.67547 15.1893 1.00301 17.1093 1.68566C18.8441 2.30208 20.1306 3.89153 20.4181 5.75608C20.5155 6.36231 20.4571 7.43723 20.2963 8.02818C19.6335 10.5244 17.3773 13.3977 13.8102 16.2862C12.9282 16.9994 12.246 17.5139 11.4858 18.0387L10.9156 18.436L10.1457 17.9011C7.21699 15.843 4.65376 13.418 3.13337 11.2733C2.3683 10.1933 1.80303 9.04196 1.53014 8.02818C1.37907 7.44742 1.31572 6.32665 1.40831 5.75608C1.58861 4.6506 2.12952 3.59096 2.90434 2.8319C3.9959 1.76717 5.47731 1.25773 6.90511 1.46151Z" fill="#6E6E6E"/>
</svg>
