<svg width="13" height="12" viewBox="0 0 13 12" fill="none" xmlns="http://www.w3.org/2000/svg">
<path d="M6.05219 7.08521C4.98719 7.08521 4.11719 6.22021 4.11719 5.15021C4.11719 4.08021 4.98719 3.22021 6.05219 3.22021C7.11719 3.22021 7.98719 4.08521 7.98719 5.15522C7.98719 6.22521 7.11719 7.08521 6.05219 7.08521ZM6.05219 3.97021C5.40219 3.97021 4.86719 4.50022 4.86719 5.15522C4.86719 5.81021 5.39719 6.34021 6.05219 6.34021C6.70719 6.34021 7.23719 5.81021 7.23719 5.15522C7.23719 4.50022 6.70219 3.97021 6.05219 3.97021Z" fill="#E16C52"/>
<path d="M6.0516 11.38C5.3116 11.38 4.5666 11.1 3.9866 10.545C2.5116 9.125 0.881602 6.86 1.4966 4.165C2.0516 1.72 4.1866 0.625 6.0516 0.625C6.0516 0.625 6.0516 0.625 6.0566 0.625C7.9216 0.625 10.0566 1.72 10.6116 4.17C11.2216 6.865 9.5916 9.125 8.1166 10.545C7.5366 11.1 6.7916 11.38 6.0516 11.38ZM6.0516 1.375C4.5966 1.375 2.7266 2.15 2.2316 4.33C1.6916 6.685 3.1716 8.715 4.5116 10C5.3766 10.835 6.7316 10.835 7.5966 10C8.9316 8.715 10.4116 6.685 9.8816 4.33C9.3816 2.15 7.5066 1.375 6.0516 1.375Z" fill="#E16C52"/>
</svg>
