<svg width="342" height="19" viewBox="0 0 342 19" fill="none" xmlns="http://www.w3.org/2000/svg">
<line x1="-2.18557e-08" y1="9.25" x2="122" y2="9.24999" stroke="#939393" stroke-width="0.5"/>
<path d="M140.304 9.932C140.304 6.852 138.302 4.696 135.432 4.696C132.576 4.696 130.574 6.866 130.574 9.932C130.574 13.012 132.562 15.168 135.418 15.168C138.288 15.168 140.304 13.012 140.304 9.932ZM138.862 9.932C138.862 12.27 137.49 13.852 135.432 13.852C133.374 13.852 132.016 12.284 132.016 9.932C132.016 7.58 133.374 6.026 135.432 6.026C137.49 6.026 138.862 7.58 138.862 9.932ZM145.755 8.098C145.489 8.042 145.293 8.014 145.055 8.014C144.117 8.014 143.431 8.49 143.151 9.204L143.067 8.168H141.835V15H143.151V11.374C143.151 10.058 143.921 9.302 145.167 9.302H145.755V8.098ZM152.161 15V4.696H150.845V15H152.161ZM153.65 11.57C153.65 13.684 155.162 15.168 157.22 15.168C159.264 15.168 160.776 13.684 160.776 11.57C160.776 9.456 159.264 7.972 157.22 7.972C155.162 7.972 153.65 9.456 153.65 11.57ZM154.98 11.57C154.98 10.142 155.89 9.148 157.22 9.148C158.536 9.148 159.46 10.142 159.46 11.57C159.46 12.998 158.536 13.992 157.22 13.992C155.89 13.992 154.98 12.998 154.98 11.57ZM161.799 11.402C161.799 13.32 163.031 14.818 164.977 14.818C166.055 14.818 166.951 14.342 167.399 13.544V14.916C167.399 16.218 166.559 17.058 165.271 17.058C164.123 17.058 163.367 16.47 163.199 15.462H161.883C162.135 17.198 163.409 18.248 165.271 18.248C167.371 18.248 168.701 16.876 168.701 14.72V8.154H167.525L167.427 9.316C166.993 8.462 166.139 7.958 165.033 7.958C163.045 7.958 161.799 9.47 161.799 11.402ZM163.115 11.374C163.115 10.114 163.899 9.106 165.215 9.106C166.559 9.106 167.343 10.058 167.343 11.374C167.343 12.718 166.531 13.67 165.201 13.67C163.913 13.67 163.115 12.662 163.115 11.374ZM171.244 6.53C171.72 6.53 172.112 6.138 172.112 5.662C172.112 5.172 171.72 4.794 171.244 4.794C170.768 4.794 170.376 5.172 170.376 5.662C170.376 6.138 170.768 6.53 171.244 6.53ZM170.6 15H171.916V8.154H170.6V15ZM175.143 15V11.374C175.143 10.044 175.857 9.162 177.089 9.162C178.097 9.162 178.741 9.722 178.741 11.108V15H180.057V10.814C180.057 9.064 179.231 7.958 177.425 7.958C176.459 7.958 175.591 8.42 175.157 9.204L175.017 8.154H173.827V15H175.143ZM187.178 15H188.48L189.67 11.346C189.922 10.52 190.048 10.072 190.118 9.736C190.188 10.114 190.328 10.646 190.552 11.332L191.742 15H192.988L195.326 8.154H193.954L192.806 11.71C192.61 12.312 192.484 12.788 192.372 13.334C192.26 12.844 192.036 12.046 191.924 11.71L190.79 8.154H189.446L188.298 11.71C188.144 12.158 187.962 12.732 187.85 13.334C187.724 12.732 187.584 12.214 187.43 11.71L186.296 8.154H184.938L187.178 15ZM197.098 6.53C197.574 6.53 197.966 6.138 197.966 5.662C197.966 5.172 197.574 4.794 197.098 4.794C196.622 4.794 196.23 5.172 196.23 5.662C196.23 6.138 196.622 6.53 197.098 6.53ZM196.454 15H197.77V8.154H196.454V15ZM201.613 15V9.26H202.957V8.154H201.613V6.012H200.297V8.154H198.953V9.26H200.297V15H201.613ZM205.454 14.986V11.262C205.454 10.086 206.14 9.162 207.414 9.162C208.394 9.162 209.052 9.722 209.052 11.108V15H210.368V10.814C210.368 9.064 209.528 7.958 207.778 7.958C206.714 7.958 205.888 8.462 205.454 9.204V4.696H204.138V14.986H205.454Z" fill="#6E6E6E"/>
<line x1="220" y1="9.25" x2="342" y2="9.25" stroke="#939393" stroke-width="0.5"/>
</svg>
