<svg width="22" height="20" viewBox="0 0 22 20" fill="none" xmlns="http://www.w3.org/2000/svg">
<path d="M5.39099 0.0283165C4.02725 0.204472 2.88581 0.781384 1.91965 1.78547C1.05181 2.68387 0.530254 3.63511 0.231001 4.87261C-0.299105 7.0173 0.0856492 9.13118 1.35961 11.1173C2.17615 12.3901 3.23209 13.5571 5.16868 15.3363C6.3999 16.4681 10.1577 19.771 10.3415 19.8811C10.5125 19.9868 10.5766 20 10.94 20C11.3034 20 11.3675 19.9868 11.5385 19.8811C11.7223 19.771 15.4887 16.4637 16.7113 15.3363C18.6565 13.5483 19.7039 12.3857 20.5204 11.1173C21.7944 9.13118 22.1791 7.0173 21.649 4.87261C21.3497 3.63511 20.8282 2.68387 19.9604 1.78547C19.0968 0.891479 18.1734 0.376225 16.9635 0.11199C16.3565 -0.0201263 15.2364 -0.0333385 14.7063 0.0899715C13.2272 0.420263 12.0943 1.18214 11.0597 2.53854L10.94 2.69267L10.8246 2.53854C9.80284 1.20856 8.68705 0.446686 7.26346 0.11199C6.84023 0.0107002 5.86552 -0.0333385 5.39099 0.0283165Z" fill="#EA3943"/>
</svg>
