<svg width="114" height="114" viewBox="0 0 114 114" fill="none" xmlns="http://www.w3.org/2000/svg">
<path d="M106.742 17.9178V84.1065L24.3268 1.79934C47.1529 -0.73071 70.1965 -0.592193 92.9905 2.21209C96.8064 2.70346 100.311 4.57145 102.844 7.46424C105.376 10.357 106.763 14.075 106.742 17.9178ZM6.9917 108.53V29.7664L82.9015 105.583L56.8667 93.1015L14.6511 113.34C13.8364 113.731 12.9357 113.91 12.0333 113.859C11.1308 113.808 10.256 113.529 9.4908 113.048C8.7256 112.568 8.09496 111.901 7.65789 111.111C7.22082 110.321 6.99161 109.432 6.9917 108.53ZM8.9867 1.57162C7.97371 0.628855 6.63388 0.115605 5.24948 0.140001C3.86509 0.164397 2.54422 0.724535 1.56515 1.70241C0.586082 2.68028 0.0252586 3.99954 0.000832535 5.38224C-0.0235935 6.76495 0.490284 8.10314 1.4342 9.1149L104.747 112.301C105.236 112.826 105.826 113.246 106.481 113.538C107.137 113.83 107.844 113.987 108.562 113.999C109.279 114.012 109.992 113.88 110.658 113.612C111.323 113.343 111.927 112.944 112.435 112.437C112.942 111.93 113.342 111.326 113.611 110.662C113.88 109.997 114.012 109.285 113.999 108.569C113.987 107.852 113.829 107.145 113.537 106.491C113.245 105.836 112.824 105.247 112.299 104.758L8.9867 1.57162Z" fill="#EAEAEA"/>
</svg>
