<svg width="20" height="20" viewBox="0 0 20 20" fill="none" xmlns="http://www.w3.org/2000/svg">
<path d="M9.52578 1.33836C8.54406 1.60212 7.93485 2.62226 8.18319 3.58422C8.44318 4.5772 9.45982 5.19394 10.4338 4.94181C11.4271 4.68193 12.0441 3.66567 11.7919 2.69984C11.5319 1.69522 10.4997 1.0746 9.52578 1.33836Z" fill="#797979"/>
<path d="M9.52578 8.21336C8.54406 8.47712 7.93485 9.49726 8.18319 10.4592C8.44318 11.4522 9.45982 12.0689 10.4338 11.8168C11.4271 11.5569 12.0441 10.5407 11.7919 9.57484C11.5319 8.57022 10.4997 7.9496 9.52578 8.21336Z" fill="#797979"/>
<path d="M9.52578 15.0884C8.54406 15.3521 7.93485 16.3723 8.18319 17.3342C8.44318 18.3272 9.45982 18.9439 10.4338 18.6918C11.4271 18.4319 12.0441 17.4157 11.7919 16.4498C11.5319 15.4452 10.4997 14.8246 9.52578 15.0884Z" fill="#797979"/>
</svg>
