<svg width="3" height="15" viewBox="0 0 3 15" fill="none" xmlns="http://www.w3.org/2000/svg">
<path d="M1.12729 0.0529697C0.335726 0.27943 -0.15548 1.1553 0.0447571 1.98122C0.25438 2.83377 1.0741 3.36329 1.8594 3.14682C2.66035 2.92369 3.15781 2.05115 2.95445 1.22191C2.74482 0.359358 1.91259 -0.173491 1.12729 0.0529697Z" fill="#797979"/>
<path d="M1.12729 5.95434C0.335726 6.1808 -0.15548 7.05667 0.0447571 7.88258C0.25438 8.73514 1.0741 9.26466 1.8594 9.04819C2.66035 8.82506 3.15781 7.95252 2.95445 7.12327C2.74482 6.26073 1.91259 5.72788 1.12729 5.95434Z" fill="#797979"/>
<path d="M1.12729 11.8577C0.335726 12.0841 -0.15548 12.96 0.0447571 13.7859C0.25438 14.6385 1.0741 15.168 1.8594 14.9515C2.66035 14.7284 3.15781 13.8558 2.95445 13.0266C2.74482 12.164 1.91259 11.6312 1.12729 11.8577Z" fill="#797979"/>
</svg>
