<svg width="25" height="24" viewBox="0 0 25 24" fill="none" xmlns="http://www.w3.org/2000/svg">
<path d="M18.4998 7.91002C18.4698 7.91002 18.4498 7.91002 18.4198 7.91002H18.3698C16.4798 7.85002 15.0698 6.39001 15.0698 4.59001C15.0698 2.75001 16.5698 1.26001 18.3998 1.26001C20.2298 1.26001 21.7298 2.76001 21.7298 4.59001C21.7198 6.40001 20.3098 7.86001 18.5098 7.92001C18.5098 7.91001 18.5098 7.91002 18.4998 7.91002ZM18.3998 2.75002C17.3898 2.75002 16.5698 3.57002 16.5698 4.58002C16.5698 5.57002 17.3398 6.37002 18.3298 6.41002C18.3398 6.40002 18.4198 6.40002 18.5098 6.41002C19.4798 6.36002 20.2298 5.56002 20.2398 4.58002C20.2398 3.57002 19.4198 2.75002 18.3998 2.75002Z" fill="#A7A7A7"/>
<path d="M18.51 15.2801C18.12 15.2801 17.73 15.2501 17.34 15.1801C16.93 15.1101 16.66 14.7201 16.73 14.3101C16.8 13.9001 17.19 13.6301 17.6 13.7001C18.83 13.9101 20.13 13.6802 21 13.1002C21.47 12.7902 21.72 12.4001 21.72 12.0101C21.72 11.6201 21.46 11.2401 21 10.9301C20.13 10.3501 18.81 10.1201 17.57 10.3401C17.16 10.4201 16.77 10.1401 16.7 9.73015C16.63 9.32015 16.9 8.93015 17.31 8.86015C18.94 8.57015 20.63 8.88014 21.83 9.68014C22.71 10.2701 23.22 11.1101 23.22 12.0101C23.22 12.9001 22.72 13.7502 21.83 14.3502C20.92 14.9502 19.74 15.2801 18.51 15.2801Z" fill="#A7A7A7"/>
<path d="M6.46998 7.91C6.45998 7.91 6.44998 7.91 6.44998 7.91C4.64998 7.85 3.23998 6.39 3.22998 4.59C3.22998 2.75 4.72998 1.25 6.55998 1.25C8.38998 1.25 9.88998 2.75 9.88998 4.58C9.88998 6.39 8.47998 7.85 6.67998 7.91L6.46998 7.16L6.53998 7.91C6.51998 7.91 6.48998 7.91 6.46998 7.91ZM6.56998 6.41C6.62998 6.41 6.67998 6.41 6.73998 6.42C7.62998 6.38 8.40998 5.58 8.40998 4.59C8.40998 3.58 7.58998 2.75999 6.57998 2.75999C5.56998 2.75999 4.74998 3.58 4.74998 4.59C4.74998 5.57 5.50998 6.36 6.47998 6.42C6.48998 6.41 6.52998 6.41 6.56998 6.41Z" fill="#A7A7A7"/>
<path d="M6.46 15.2801C5.23 15.2801 4.05 14.9502 3.14 14.3502C2.26 13.7602 1.75 12.9101 1.75 12.0101C1.75 11.1201 2.26 10.2701 3.14 9.68014C4.34 8.88014 6.03 8.57015 7.66 8.86015C8.07 8.93015 8.34 9.32015 8.27 9.73015C8.2 10.1401 7.81 10.4201 7.4 10.3401C6.16 10.1201 4.85 10.3501 3.97 10.9301C3.5 11.2401 3.25 11.6201 3.25 12.0101C3.25 12.4001 3.51 12.7902 3.97 13.1002C4.84 13.6802 6.14 13.9101 7.37 13.7001C7.78 13.6301 8.17 13.9101 8.24 14.3101C8.31 14.7201 8.04 15.1101 7.63 15.1801C7.24 15.2501 6.85 15.2801 6.46 15.2801Z" fill="#A7A7A7"/>
<path d="M12.4998 15.38C12.4698 15.38 12.4498 15.38 12.4198 15.38H12.3698C10.4798 15.32 9.06982 13.86 9.06982 12.06C9.06982 10.22 10.5698 8.72998 12.3998 8.72998C14.2298 8.72998 15.7298 10.23 15.7298 12.06C15.7198 13.87 14.3098 15.33 12.5098 15.39C12.5098 15.38 12.5098 15.38 12.4998 15.38ZM12.3998 10.22C11.3898 10.22 10.5698 11.04 10.5698 12.05C10.5698 13.04 11.3398 13.84 12.3298 13.88C12.3398 13.87 12.4198 13.87 12.5098 13.88C13.4798 13.83 14.2298 13.03 14.2398 12.05C14.2398 11.05 13.4198 10.22 12.3998 10.22Z" fill="#A7A7A7"/>
<path d="M12.4998 22.76C11.2998 22.76 10.0998 22.45 9.16978 21.82C8.28978 21.23 7.77979 20.39 7.77979 19.49C7.77979 18.6 8.27978 17.74 9.16978 17.15C11.0398 15.91 13.9698 15.91 15.8298 17.15C16.7098 17.74 17.2198 18.58 17.2198 19.48C17.2198 20.37 16.7198 21.23 15.8298 21.82C14.8998 22.44 13.6998 22.76 12.4998 22.76ZM9.99979 18.41C9.52979 18.72 9.27979 19.11 9.27979 19.5C9.27979 19.89 9.53979 20.27 9.99979 20.58C11.3498 21.49 13.6398 21.49 14.9898 20.58C15.4598 20.27 15.7098 19.88 15.7098 19.49C15.7098 19.1 15.4498 18.72 14.9898 18.41C13.6498 17.5 11.3598 17.51 9.99979 18.41Z" fill="#A7A7A7"/>
</svg>
