<svg width="694" height="67" viewBox="0 0 694 67" fill="none" xmlns="http://www.w3.org/2000/svg">
<g clip-path="url(#clip0_316_5887)">
<path d="M562.667 6V12H569.334H576V6V-9.53674e-07H569.334H562.667V6Z" fill="#2C2C30"/>
<path d="M204 34.0001V66.6667H210.667H217.333V34.0001V1.33341H210.667H204V34.0001Z" fill="#2C2C30"/>
<path d="M293.333 8.66669C293.333 15.6 293.2 16 290 16C287.067 16 286.667 16.5334 286.667 21.3334C286.667 26.1334 287.067 26.6667 290 26.6667H293.333V40.5334C293.333 56.5334 294.8 62 300.133 64.6667C304.133 66.8 319.467 67.3334 322.4 65.4667C323.6 64.8 324 62.2667 323.733 58.5334L323.333 52.6667L317.733 53.0667C307.733 53.8667 306.667 52.4 306.667 38.6667V26.6667H315.333H324V21.3334V16H315.333H306.667V8.66669V1.33336H300H293.333V8.66669Z" fill="#2C2C30"/>
<path d="M332 8.66669C332 15.6 331.867 16 328.667 16C325.733 16 325.333 16.5334 325.333 21.3334C325.333 26.1334 325.733 26.6667 328.667 26.6667H332V40.5334C332 56.5334 333.467 62 338.8 64.6667C342.8 66.8 358.133 67.3334 361.067 65.4667C362.267 64.8 362.667 62.2667 362.4 58.5334L362 52.6667L356.4 53.0667C346.4 53.8667 345.333 52.4 345.333 38.6667V26.6667H354H362.667V21.3334V16H354H345.333V8.66669V1.33336H338.667H332V8.66669Z" fill="#2C2C30"/>
<path d="M142.667 34.5334V66.6667H149.333H156V58.2667V49.7334L168.667 48.9334C182.4 48.0001 188.4 46.1334 193.067 41.0667C199.067 34.5334 199.067 17.4667 192.933 10.9334C187.067 4.53341 183.2 3.60008 162.4 2.93341L142.667 2.40008V34.5334ZM182 18.0001C186.133 22.0001 186.4 29.0667 182.8 33.4667C180.533 36.2667 178.933 36.6667 168.133 37.0667L156 37.6001V26.1334V14.6667H167.333C177.733 14.6667 179.067 14.9334 182 18.0001Z" fill="#2C2C30"/>
<path d="M51.0667 8.80008C51.7334 12.8001 51.4667 13.0667 46.8 13.8667C40.1334 14.9334 29.7334 20.5334 23.4667 26.4001C17.2 32.4001 10.6667 45.6001 10.6667 52.2667C10.6667 56.9334 10.4 57.2001 5.73337 57.6001C1.0667 58.0001 0.666699 58.4001 0.266699 62.2667L-0.133301 66.6667H60H120.133L119.733 62.2667C119.333 58.4001 118.933 58.0001 114.533 57.6001C109.867 57.2001 109.733 57.0667 108.933 50.6667C106.933 34.2667 92.1334 18.4001 74.8 14.2667C68.9334 12.9334 68.1334 12.4001 68.8 10.0001C69.3334 8.53341 69.7334 6.80008 69.8667 6.13341C69.8667 5.60008 65.6 4.93341 60.2667 4.80008L50.4 4.66674L51.0667 8.80008ZM83.7334 23.3334C84.5334 25.2001 86.1334 26.6667 87.3334 26.6667C89.6 26.6667 90 28.8001 88 30.0001C87.3334 30.4001 86.6667 32.4001 86.5334 34.4001V38.0001L84.4 34.9334C83.3334 33.3334 81.4667 32.0001 80.4 32.0001C78.9334 32.0001 78.6667 31.3334 79.4667 29.6001C80 28.4001 80.5334 25.7334 80.5334 23.6001C80.6667 19.0667 81.7334 18.9334 83.7334 23.3334Z" fill="#DB4E2E"/>
<path d="M387.067 16C374 18.6666 368.133 25.4666 367.067 39.0666C366 54.1333 374.133 64.2666 388.933 66.1333C399.733 67.4666 410.133 64.8 415.6 59.3333C418 56.9333 420 53.7333 420 52.1333C420 49.6 419.2 49.3333 413.333 49.3333C409.733 49.3333 406.667 49.8666 406.667 50.5333C406.667 52.9333 398.533 54.9333 391.733 54.4C386.667 53.8666 384.133 52.8 382.4 50.6666C377.333 44.4 378.4 44 400.667 44H421.333V39.6C421.2 33.3333 416.933 24.8 411.733 20.8C409.2 18.9333 403.867 16.8 400 16C396.133 15.3333 392.933 14.6666 392.8 14.8C392.8 14.9333 390.133 15.4666 387.067 16ZM404.133 30.1333C409.333 34.9333 407.467 36 394 36C380.667 36 378.533 34.8 383.733 30.4C388.4 26.1333 399.6 26 404.133 30.1333Z" fill="#2C2C30"/>
<path d="M659.067 16C646 18.6666 640.134 25.4666 639.067 39.0666C638 54.1333 646.134 64.2666 660.934 66.1333C671.734 67.4666 682.134 64.8 687.6 59.3333C690 56.9333 692 53.7333 692 52.1333C692 49.6 691.2 49.3333 685.334 49.3333C681.734 49.3333 678.667 49.8666 678.667 50.5333C678.667 52.9333 670.534 54.9333 663.734 54.4C658.667 53.8666 656.134 52.8 654.4 50.6666C649.334 44.4 650.4 44 672.667 44H693.334V39.6C693.2 33.3333 688.934 24.8 683.734 20.8C681.2 18.9333 675.867 16.8 672 16C668.134 15.3333 664.934 14.6666 664.8 14.8C664.8 14.9333 662.134 15.4666 659.067 16ZM676.134 30.1333C681.334 34.9333 679.467 36 666 36C652.667 36 650.534 34.8 655.734 30.4C660.4 26.1333 671.6 26 676.134 30.1333Z" fill="#2C2C30"/>
<path d="M236.533 17.8667C228.133 21.6001 223.333 31.7334 224.267 43.3334C225.6 58.8001 235.2 67.4667 249.733 66.2667C254 65.8667 259.467 64.4001 262 62.8001L266.667 60.1334V63.3334C266.667 66.4001 267.2 66.6667 273.333 66.6667H280V41.3334V16.0001H273.333C267.067 16.0001 266.667 16.2667 266.667 19.4667V22.8001L262.4 19.7334C257.067 16.0001 242.933 14.9334 236.533 17.8667ZM262.667 31.3334C265.2 34.0001 265.867 36.2667 265.867 41.6001C265.867 47.3334 265.333 48.8001 262.133 51.4667C256.933 56.1334 247.067 56.0001 241.467 51.2001C237.867 48.2667 237.333 46.9334 237.333 41.2001C237.333 31.4667 241.2 28.0001 251.733 28.0001C258.4 28.0001 260 28.5334 262.667 31.3334Z" fill="#2C2C30"/>
<path d="M428 41.3334V66.6667H434.533H441.067L441.6 51.4667C442 37.4667 442.267 35.8667 445.2 32.8001C448 29.8667 449.6 29.3334 456.133 29.3334H463.867L464.8 24.6667C466.267 16.6667 465.067 15.6001 455.733 16.2667C449.467 16.6667 447.067 17.4667 445.2 19.7334C442.267 23.4667 441.333 23.4667 441.333 19.3334C441.333 16.2667 440.933 16.0001 434.667 16.0001H428V41.3334Z" fill="#2C2C30"/>
<path d="M469.333 19.6001C470 21.6001 473.6 33.0667 477.333 44.9334L484.133 66.6667H493.2H502.4L505.733 55.7334C507.6 49.6001 509.6 42.9334 510.133 40.9334C510.533 38.8001 511.467 37.6001 512 38.2668C512.667 38.8001 514.933 45.4667 517.2 52.9334L521.467 66.6667H530.667H539.867L543.2 55.7334C545.067 49.6001 548.667 38.2668 551.2 30.2668L555.733 16.0001H548.8H542L536.8 33.0667C531.333 51.0667 530 53.7334 528.933 49.8667C528.533 48.4001 526 40.2668 523.333 31.6001L518.533 15.8668L511.733 16.2668L504.933 16.6668L499.6 34.2668C496.667 44.0001 493.867 51.6001 493.467 51.2001C493.067 50.8001 490.267 42.9334 487.2 33.6001L481.867 16.6668L474.933 16.2668L468.133 15.8668L469.333 19.6001Z" fill="#2C2C30"/>
<path d="M562.667 41.3334V66.6667H569.334H576V41.3334V16.0001H569.334H562.667V41.3334Z" fill="#2C2C30"/>
<path d="M591.2 17.8667C585.6 20.4001 582.667 24.8001 582.667 31.0667C582.667 39.6001 589.6 44.0001 606.667 46.1334C615.2 47.2001 618.667 48.6667 618.667 51.3334C618.667 54.2667 614.267 56.0001 606.667 56.0001C601.067 56.0001 599.333 55.3334 596.8 52.6667C594.4 50.0001 592.4 49.3334 587.467 49.3334C581.733 49.3334 581.333 49.6001 581.333 52.8001C581.333 61.7334 595.867 67.7334 613.6 66.2667C625.067 65.3334 630.133 62.6667 631.733 56.8001C635.2 44.4001 628 38.5334 605.067 35.3334C593.067 33.7334 593.467 26.6667 605.6 26.6667C612.933 26.6667 617.333 28.4001 617.333 31.4667C617.333 33.0667 618.8 33.3334 624.4 33.0667C630.933 32.6667 631.333 32.4001 630.933 29.4667C629.6 20.2667 621.467 16.0001 605.6 16.0001C600 16.1334 593.467 16.9334 591.2 17.8667Z" fill="#2C2C30"/>
</g>
<defs>
<clipPath id="clip0_316_5887">
<rect width="693.333" height="66.6667" fill="white"/>
</clipPath>
</defs>
</svg>
