<svg width="28" height="28" viewBox="0 0 28 28" fill="none" xmlns="http://www.w3.org/2000/svg">
<path d="M24.5336 0.0535665C24.1342 0.135762 23.691 0.333031 23.3737 0.574138C23.1986 0.700171 22.6898 1.18238 22.2357 1.6372L21.415 2.46463L23.4831 4.53048L25.5457 6.60181L26.4211 5.72505C26.9081 5.24284 27.3895 4.71131 27.5044 4.54692C28.2813 3.37426 28.1336 1.86735 27.1378 0.870041C26.443 0.17412 25.4691 -0.132743 24.5336 0.0535665Z" fill="white"/>
<path d="M15.4961 8.39361C11.7484 12.1527 10.8293 13.1062 10.7855 13.2596C10.7581 13.3637 10.5557 14.361 10.3369 15.4789C10.0688 16.8269 9.94841 17.5557 9.9703 17.6598C10.0195 17.8516 10.1837 18.016 10.3752 18.0653C10.5831 18.1146 14.7575 17.2817 14.9709 17.1502C15.053 17.0954 17.1922 14.9802 19.7199 12.4431L24.3156 7.83468L22.2639 5.7798C21.1369 4.65098 20.2013 3.72491 20.1849 3.72491C20.1685 3.72491 18.0621 5.82911 15.4961 8.39361Z" fill="white"/>
<path d="M2.85711 4.73868C1.80666 4.93047 0.832796 5.6757 0.356807 6.65657C-0.0261721 7.44565 -0.00975871 6.8922 0.00665469 16.5474L0.0230681 25.2328L0.143433 25.5889C0.32398 26.115 0.635835 26.6082 1.03523 27.0137C1.44556 27.4246 1.85043 27.6767 2.3866 27.863L2.75863 28H11.6328H20.507L20.9337 27.863C22.0334 27.5178 22.8979 26.5972 23.2316 25.4191C23.3246 25.0903 23.3301 24.7341 23.3301 19.9668V14.8652L23.166 14.6021C22.9252 14.2131 22.5204 14.0048 22.0827 14.0432C21.6997 14.0761 21.3988 14.2569 21.1854 14.5857L21.0322 14.8158L21.0049 19.8572C20.9775 24.4711 20.972 24.9204 20.8845 25.0738C20.7532 25.3149 20.4413 25.5725 20.2006 25.6437C20.0529 25.6876 17.5197 25.6985 11.5343 25.6876L3.07596 25.6711L2.86259 25.5232C2.74769 25.441 2.58903 25.2821 2.51243 25.167L2.37565 24.9642L2.35924 16.4269C2.3483 8.10321 2.3483 7.88402 2.45225 7.68127C2.51243 7.57168 2.62733 7.41277 2.71486 7.33057C3.05955 6.99631 2.81882 7.01275 8.12581 7.01275C11.8079 7.01275 13.0334 6.99631 13.203 6.94699C13.5149 6.85384 13.8541 6.49766 13.9416 6.17436C14.0893 5.65379 13.8705 5.10582 13.4109 4.83731L13.1538 4.68388L8.20241 4.67292C4.30696 4.66744 3.16897 4.6784 2.85711 4.73868Z" fill="white"/>
</svg>
