<svg width="24" height="24" viewBox="0 0 24 24" fill="none" xmlns="http://www.w3.org/2000/svg">
<path d="M9 22H15C20 22 22 20 22 15V9C22 4 20 2 15 2H9C4 2 2 4 2 9V15C2 20 4 22 9 22Z" stroke="#5C5C5C" stroke-width="1.5" stroke-linecap="round" stroke-linejoin="round"/>
<path d="M17.3805 15.4926C17.3805 15.7695 17.3094 16.0431 17.1722 16.2941C17.035 16.5451 16.835 16.7674 16.5862 16.9455C16.3375 17.1236 16.046 17.2531 15.7322 17.325C15.4185 17.3969 15.0901 17.4093 14.7701 17.3615C14.4501 17.3137 14.1462 17.2067 13.8799 17.0481C13.6136 16.8896 13.3912 16.6832 13.2284 16.4436C13.0655 16.204 12.9662 15.9369 12.9374 15.6611C12.9086 15.3853 12.951 15.1074 13.0616 14.8471L9.7846 13.0527C9.47162 13.3144 9.07495 13.4914 8.64435 13.5617C8.21376 13.6319 7.76841 13.5922 7.36418 13.4476C6.95995 13.3029 6.61485 13.0597 6.37216 12.7485C6.12947 12.4374 6 12.072 6 11.6984C6 11.3247 6.12947 10.9594 6.37216 10.6482C6.61485 10.337 6.95995 10.0938 7.36418 9.94915C7.76841 9.8045 8.21376 9.7648 8.64435 9.83505C9.07495 9.90529 9.47162 10.0824 9.7846 10.344L13.0616 8.55228C12.874 8.1128 12.8829 7.6298 13.0867 7.19557C13.2904 6.76134 13.6748 6.40633 14.1663 6.19837C14.6578 5.99041 15.2219 5.94409 15.751 6.06825C16.28 6.19242 16.7368 6.47836 17.0341 6.87144C17.3314 7.26453 17.4483 7.73719 17.3626 8.19912C17.2768 8.66105 16.9944 9.07985 16.5692 9.3755C16.144 9.67115 15.606 9.82293 15.0578 9.80182C14.5096 9.7807 13.9898 9.58819 13.5977 9.26107L10.3207 11.0554C10.4978 11.4726 10.4978 11.9294 10.3207 12.3465L13.5977 14.1409C13.9106 13.8799 14.3068 13.7034 14.7368 13.6333C15.1668 13.5633 15.6115 13.6029 16.0152 13.7472C16.419 13.8914 16.7638 14.134 17.0066 14.4444C17.2495 14.7549 17.3795 15.1195 17.3805 15.4926Z" fill="#5C5C5C"/>
</svg>
