<svg width="24" height="24" viewBox="0 0 24 24" fill="none" xmlns="http://www.w3.org/2000/svg">
<path d="M6.00006 10.2638C5.99849 10.36 6.0262 10.4544 6.07951 10.5345C6.13282 10.6146 6.20921 10.6766 6.29856 10.7122L10.8548 12.535L12.6776 17.0918C12.7129 17.1799 12.7737 17.2555 12.8523 17.3087C12.9309 17.3619 13.0236 17.3903 13.1185 17.3903H13.1261C13.2222 17.3888 13.3156 17.3581 13.3939 17.3023C13.4722 17.2466 13.5317 17.1684 13.5646 17.078L17.3611 6.63764C17.3922 6.5527 17.3983 6.46065 17.3789 6.37234C17.3594 6.28402 17.3151 6.2031 17.2511 6.13913C17.1872 6.07515 17.1063 6.03077 17.018 6.01122C16.9297 5.99167 16.8377 5.99776 16.7527 6.02877L6.31233 9.82527C6.22195 9.85822 6.14371 9.91783 6.08795 9.99622C6.0322 10.0746 6.00155 10.1681 6.00006 10.2642V10.2638Z" fill="#E16C52"/>
<path d="M9 22H15C20 22 22 20 22 15V9C22 4 20 2 15 2H9C4 2 2 4 2 9V15C2 20 4 22 9 22Z" stroke="#E16C52" stroke-width="1.5" stroke-linecap="round" stroke-linejoin="round"/>
</svg>
