<svg width="24" height="24" viewBox="0 0 24 24" fill="none" xmlns="http://www.w3.org/2000/svg">
<path d="M17.3633 14.597C17.2306 14.4556 16.762 14.0376 15.9006 13.4846C15.0329 12.9268 14.393 12.579 14.2094 12.4979C14.1932 12.4907 14.1754 12.4881 14.1578 12.4903C14.1403 12.4925 14.1236 12.4994 14.1097 12.5104C13.814 12.741 13.3162 13.1645 13.2895 13.1874C13.1171 13.3351 13.1171 13.3351 12.976 13.2891C12.7279 13.2078 11.957 12.7984 11.2853 12.1252C10.6136 11.4519 10.1831 10.662 10.1018 10.4141C10.0552 10.2727 10.0552 10.2727 10.2035 10.1003C10.2263 10.0736 10.6502 9.57583 10.8808 9.2804C10.8917 9.26648 10.8987 9.24985 10.9008 9.23229C10.903 9.21473 10.9004 9.19691 10.8932 9.18073C10.8121 8.99691 10.4643 8.35722 9.9065 7.48947C9.35275 6.62834 8.93527 6.15976 8.79391 6.02704C8.78094 6.0148 8.7649 6.00628 8.7475 6.00239C8.73009 5.9985 8.71196 5.99937 8.69501 6.00492C8.20087 6.17473 7.7241 6.3914 7.27122 6.65198C6.83402 6.90613 6.42011 7.19838 6.0343 7.52532C6.02084 7.53677 6.01074 7.55167 6.0051 7.56842C5.99945 7.58517 5.99848 7.60315 6.00227 7.62041C6.05541 7.86805 6.3094 8.90182 7.09757 10.3337C7.90175 11.7952 8.45907 12.5439 9.64005 13.7208C10.821 14.8977 11.5934 15.4886 13.0564 16.2928C14.4883 17.081 15.5226 17.3352 15.7697 17.3878C15.787 17.3916 15.805 17.3906 15.8218 17.385C15.8386 17.3793 15.8535 17.3693 15.8651 17.3558C16.1919 16.97 16.4841 16.5561 16.7381 16.1189C16.9987 15.666 17.2153 15.1892 17.3852 14.6951C17.3906 14.6783 17.3915 14.6603 17.3876 14.6431C17.3838 14.6258 17.3754 14.6099 17.3633 14.597Z" fill="#E16C52"/>
<path d="M9 22H15C20 22 22 20 22 15V9C22 4 20 2 15 2H9C4 2 2 4 2 9V15C2 20 4 22 9 22Z" stroke="#E16C52" stroke-width="1.5" stroke-linecap="round" stroke-linejoin="round"/>
</svg>
