<svg width="21" height="20" viewBox="0 0 21 20" fill="none" xmlns="http://www.w3.org/2000/svg">
<path d="M16.0995 0.0565453C14.5277 0.318394 13.2812 1.38533 12.8502 2.82745C12.7742 3.08539 12.7573 3.24562 12.7573 3.76541C12.753 4.30474 12.7657 4.43371 12.8502 4.69947C12.9052 4.87143 12.9305 5.02384 12.9136 5.03948C12.8714 5.07856 8.12214 7.57589 8.09256 7.57589C8.07988 7.57589 7.9658 7.47818 7.83904 7.35703C7.26018 6.80597 6.45738 6.41907 5.63345 6.28619C5.48134 6.25883 5.16021 6.23929 4.91515 6.23929C3.77432 6.2432 2.78138 6.64183 1.97435 7.42738C1.4969 7.88854 1.12085 8.54512 0.95606 9.19778C0.854653 9.62377 0.854653 10.3741 0.95606 10.8001C1.32366 12.2735 2.55322 13.3874 4.14615 13.6922C4.52642 13.7664 5.24472 13.7782 5.63345 13.7117C6.45738 13.5789 7.29821 13.1724 7.85172 12.6292C7.97003 12.5158 8.07988 12.422 8.08833 12.422C8.12214 12.422 12.8714 14.9194 12.9136 14.9584C12.9305 14.9741 12.9052 15.1265 12.8502 15.2985C12.7657 15.5642 12.753 15.6932 12.7573 16.2325C12.7573 16.9555 12.8291 17.2565 13.1122 17.8075C13.5516 18.6556 14.1389 19.2105 15.0347 19.617C17.5318 20.7426 20.46 19.2731 20.8445 16.7015C21.005 15.6306 20.6163 14.509 19.7881 13.657C19.3572 13.2115 18.5037 12.7425 17.8234 12.5745C17.3163 12.4494 16.5431 12.4298 16.0276 12.5315C15.246 12.68 14.5953 12.9926 14.0164 13.4929C13.7925 13.6844 13.6361 13.7899 13.5981 13.7743C13.5432 13.7547 8.84466 11.2965 8.81086 11.2691C8.80663 11.2652 8.84043 11.1128 8.89536 10.933C9.0348 10.4601 9.0348 9.53779 8.89536 9.0649C8.84043 8.88513 8.80663 8.73271 8.81086 8.7288C8.84043 8.70535 13.5516 6.23929 13.6023 6.21975C13.6361 6.20802 13.8094 6.32918 14.0164 6.50504C14.5953 7.00529 15.246 7.31795 16.0276 7.46646C16.5389 7.56416 17.3121 7.54853 17.8234 7.42347C18.3008 7.31013 19.0276 6.9623 19.4079 6.66528C21.6008 4.96131 21.2881 1.79569 18.791 0.482538C17.9966 0.0643616 16.9995 -0.0958729 16.0995 0.0565453ZM17.3206 1.36579C17.4558 1.38533 17.7473 1.48694 17.967 1.58464C18.6262 1.87776 19.091 2.37801 19.3487 3.08148C19.4586 3.3785 19.4586 4.18359 19.3487 4.46888C19.1036 5.10201 18.6515 5.6257 18.098 5.90709C17.5656 6.18067 16.8347 6.28228 16.2304 6.16503C15.5079 6.02825 14.7601 5.47329 14.4305 4.84016C14.2277 4.44153 14.1685 4.20313 14.1685 3.75368C14.1685 3.07366 14.4136 2.53433 14.946 2.04581C15.5924 1.45177 16.4164 1.21337 17.3206 1.36579ZM5.62077 7.6306C6.54611 7.86118 7.29398 8.56857 7.5137 9.42446C7.59398 9.73711 7.59398 10.2608 7.5137 10.5735C7.33201 11.2887 6.76582 11.9179 6.03485 12.2266C5.65457 12.3869 5.36303 12.4416 4.89402 12.4377C4.1884 12.4298 3.57996 12.1914 3.07715 11.7264C2.76871 11.4411 2.53209 11.0815 2.40956 10.722C2.27857 10.3351 2.27857 9.66286 2.40956 9.27595C2.70533 8.41224 3.53771 7.74003 4.5053 7.57589C4.77571 7.5329 5.32923 7.56025 5.62077 7.6306ZM17.5065 13.872C18.3684 14.0908 19.0191 14.6771 19.3487 15.529C19.4586 15.8143 19.4586 16.6194 19.3487 16.9164C19.091 17.6199 18.6262 18.1202 17.967 18.4133C17.3797 18.6751 16.8431 18.7377 16.222 18.6165C15.2882 18.4328 14.4727 17.6981 14.2319 16.8187C14.1981 16.6937 14.1685 16.4279 14.1685 16.2325C14.1685 16.0371 14.1981 15.7713 14.2319 15.6463C14.4685 14.7904 15.2333 14.0752 16.1544 13.8524C16.5093 13.7664 17.1304 13.7743 17.5065 13.872Z" fill="#6E6E6E"/>
</svg>
