<svg width="18" height="18" viewBox="0 0 18 18" fill="none" xmlns="http://www.w3.org/2000/svg">
<path d="M9.00006 3.48828C5.41506 3.48828 2.49756 6.40578 2.49756 9.99078C2.49756 13.5758 5.41506 16.5008 9.00006 16.5008C12.5851 16.5008 15.5026 13.5833 15.5026 9.99828C15.5026 6.41328 12.5851 3.48828 9.00006 3.48828ZM9.56256 9.75078C9.56256 10.0583 9.30756 10.3133 9.00006 10.3133C8.69256 10.3133 8.43756 10.0583 8.43756 9.75078V6.00078C8.43756 5.69328 8.69256 5.43828 9.00006 5.43828C9.30756 5.43828 9.56256 5.69328 9.56256 6.00078V9.75078Z" fill="#646464"/>
<path d="M11.1675 2.5875H6.83248C6.53248 2.5875 6.29248 2.3475 6.29248 2.0475C6.29248 1.7475 6.53248 1.5 6.83248 1.5H11.1675C11.4675 1.5 11.7075 1.74 11.7075 2.04C11.7075 2.34 11.4675 2.5875 11.1675 2.5875Z" fill="#646464"/>
</svg>
