<svg width="32" height="32" viewBox="0 0 32 32" fill="none" xmlns="http://www.w3.org/2000/svg">
<path d="M12 29.3337H20C26.6667 29.3337 29.3333 26.667 29.3333 20.0003V12.0003C29.3333 5.33366 26.6667 2.66699 20 2.66699H12C5.33332 2.66699 2.66666 5.33366 2.66666 12.0003V20.0003C2.66666 26.667 5.33332 29.3337 12 29.3337Z" stroke="#646464" stroke-width="1.5" stroke-linecap="round" stroke-linejoin="round"/>
<path d="M12.1333 16V14.0267C12.1333 11.48 13.9333 10.4533 16.1333 11.72L17.84 12.7067L19.5467 13.6933C21.7467 14.96 21.7467 17.04 19.5467 18.3067L17.84 19.2933L16.1333 20.28C13.9333 21.5467 12.1333 20.5067 12.1333 17.9733V16Z" stroke="#646464" stroke-width="1.5" stroke-miterlimit="10" stroke-linecap="round" stroke-linejoin="round"/>
</svg>
